<?xml version="1.0" encoding="UTF-8" standalone="no"?>
<!-- Created with Inkscape (http://www.inkscape.org/) -->

<svg
   width="210mm"
   height="297mm"
   viewBox="0 0 210 297"
   version="1.1"
   id="svg5"
   inkscape:version="1.1.2 (1:1.1+202202050950+0a00cf5339)"
   sodipodi:docname="decor.svg"
   xmlns:inkscape="http://www.inkscape.org/namespaces/inkscape"
   xmlns:sodipodi="http://sodipodi.sourceforge.net/DTD/sodipodi-0.dtd"
   xmlns="http://www.w3.org/2000/svg"
   xmlns:svg="http://www.w3.org/2000/svg">
  <sodipodi:namedview
     id="namedview7"
     pagecolor="#ffffff"
     bordercolor="#666666"
     borderopacity="1.0"
     inkscape:pageshadow="2"
     inkscape:pageopacity="0.0"
     inkscape:pagecheckerboard="0"
     inkscape:document-units="mm"
     showgrid="false"
     inkscape:zoom="1.4378367"
     inkscape:cx="407.55671"
     inkscape:cy="662.10579"
     inkscape:window-width="1920"
     inkscape:window-height="991"
     inkscape:window-x="0"
     inkscape:window-y="32"
     inkscape:window-maximized="1"
     inkscape:current-layer="layer1" />
  <defs
     id="defs2" />
  <g
     inkscape:label="Layer 1"
     inkscape:groupmode="layer"
     id="layer1">
    <rect
       style="fill:#ffccaa;stroke-width:1.12421;paint-order:markers stroke fill"
       id="rect982"
       width="153"
       height="241"
       x="35.224247"
       y="30.083197"
       rx="46.093082"
       ry="0" />
    <path
       sodipodi:type="star"
       style="fill:#ff7f2a;stroke-width:4.249;paint-order:markers stroke fill"
       id="path1086"
       inkscape:flatsided="true"
       sodipodi:sides="9"
       sodipodi:cx="340.75952"
       sodipodi:cy="250.62498"
       sodipodi:r1="83.551408"
       sodipodi:r2="68.301697"
       sodipodi:arg1="1.1370217"
       sodipodi:arg2="1.4860876"
       inkscape:rounded="0"
       inkscape:randomized="0"
       d="m 375.87608,326.43834 -56.9476,4.83553 -46.73261,-32.90098 -14.65092,-55.24275 24.28611,-51.73584 51.85939,-24.02114 55.16708,14.93332 32.6615,46.9003 -5.12678,56.92212 z"
       transform="scale(0.26458333)"
       inkscape:transform-center-x="1.135865e-06" />
    <path
       sodipodi:type="star"
       style="fill:#ff7f2a;stroke-width:4.249;paint-order:markers stroke fill"
       id="path1132"
       inkscape:flatsided="false"
       sodipodi:sides="9"
       sodipodi:cx="497.72797"
       sodipodi:cy="492.70358"
       sodipodi:r1="68.96154"
       sodipodi:r2="64.80265"
       sodipodi:arg1="2.2681684"
       sodipodi:arg2="2.6172342"
       inkscape:rounded="0"
       inkscape:randomized="0"
       d="m 453.44048,545.56484 -11.80862,-20.41731 -11.80864,-20.41732 4.07806,-23.231 4.07807,-23.23102 18.05658,-15.17466 18.05658,-15.17466 23.58623,-0.0179 23.58623,-0.0179 18.07961,15.14721 18.07962,15.14722 4.11335,23.22478 4.11335,23.2248 -11.77759,20.43522 -11.7776,20.43524 -22.15768,8.0838 -22.15768,8.0838 -22.16993,-8.05013 z"
       transform="scale(0.26458333)"
       inkscape:transform-center-x="-0.0024051945"
       inkscape:transform-center-y="0.54781433" />
    <path
       sodipodi:type="star"
       style="fill:#c87137;stroke-width:4.249;paint-order:markers stroke fill"
       id="path1134"
       inkscape:flatsided="false"
       sodipodi:sides="9"
       sodipodi:cx="299.16858"
       sodipodi:cy="479.87634"
       sodipodi:r1="53.948975"
       sodipodi:r2="39.291039"
       sodipodi:arg1="2.3202654"
       sodipodi:arg2="2.6693313"
       inkscape:rounded="0"
       inkscape:randomized="0"
       d="m 262.41583,519.36973 1.76243,-21.61984 -18.54978,-11.24407 15.24707,-15.42889 -6.98241,-20.53703 21.59743,-2.01858 7.85211,-20.22048 17.84211,12.33623 19.01254,-10.44255 5.73828,20.91879 21.27679,4.22157 -9.05057,19.71322 13.5854,16.91037 -19.60455,9.2836 -0.46276,21.68662 -20.98534,-5.48991 -14.29438,16.31546 -12.54686,-17.69463 z"
       transform="scale(0.26458333)"
       inkscape:transform-center-x="0.12719272"
       inkscape:transform-center-y="0.30458569" />
    <path
       sodipodi:type="star"
       style="fill:#ff9955;stroke-width:4.249;paint-order:markers stroke fill"
       id="path1158"
       inkscape:flatsided="false"
       sodipodi:sides="9"
       sodipodi:cx="526.19794"
       sodipodi:cy="652.76385"
       sodipodi:r1="55.613834"
       sodipodi:r2="34.305016"
       sodipodi:arg1="0.74117"
       sodipodi:arg2="0.82543076"
       inkscape:rounded="0"
       inkscape:randomized="0"
       d="m 567.2231,690.31162 -17.75811,-12.33907 -15.97519,29.92503 -5.67211,-20.86697 -31.47313,12.65525 9.06794,-19.63099 -32.24446,-10.53606 19.565,-9.20945 -17.92824,-28.79743 20.90738,5.5213 4.7768,-33.58416 12.46696,17.66856 25.24673,-22.65649 -1.80689,21.54851 33.90343,-1.1276 -15.23527,15.34568 26.69633,20.92891 -21.5349,1.96243 z"
       transform="scale(0.26458333)"
       inkscape:transform-center-x="-0.33501866"
       inkscape:transform-center-y="0.10993297" />
    <path
       sodipodi:type="star"
       style="fill:#c87137;stroke-width:4.249;paint-order:markers stroke fill"
       id="path1160"
       inkscape:flatsided="false"
       sodipodi:sides="9"
       sodipodi:cx="267.82367"
       sodipodi:cy="776.18677"
       sodipodi:r1="50.458656"
       sodipodi:r2="36.749039"
       sodipodi:arg1="0.97519166"
       sodipodi:arg2="1.3242575"
       inkscape:rounded="0"
       inkscape:randomized="0"
       d="m 296.13145,817.95692 -19.33922,-6.1323 -14.13288,14.55583 -10.87293,-17.12862 -20.18272,2.06597 2.68091,-20.11027 -16.78884,-11.39058 14.98033,-13.68211 -5.53928,-19.51734 20.27029,-0.85193 8.30218,-18.51174 16.07555,12.37688 18.25895,-8.84428 4.35889,19.81441 19.67215,4.96152 -9.39735,17.98055 11.88054,16.44576 -18.75646,7.7334 z"
       transform="scale(0.26458333)"
       inkscape:transform-center-x="0.23727242"
       inkscape:transform-center-y="0.16678398" />
    <path
       sodipodi:type="star"
       style="fill:#e9afaf;stroke-width:4.249;paint-order:markers stroke fill"
       id="path1162"
       inkscape:flatsided="false"
       sodipodi:sides="6"
       sodipodi:cx="356.20059"
       sodipodi:cy="937.01917"
       sodipodi:r1="31.224972"
       sodipodi:r2="14.372366"
       sodipodi:arg1="-2.0368162"
       sodipodi:arg2="-1.4099349"
       inkscape:rounded="0"
       inkscape:randomized="0"
       d="m 342.17015,909.12391 16.33244,13.70844 14.84078,-11.91154 -3.70564,20.99854 17.73609,6.89672 -20.03809,7.29009 2.89531,18.80826 -16.33245,-13.70844 -14.84078,11.91154 3.70564,-20.99854 -17.73608,-6.89672 20.03808,-7.29009 z"
       transform="scale(0.26458333)"
       inkscape:transform-center-x="-0.1674004"
       inkscape:transform-center-y="0.082554621" />
    <path
       sodipodi:type="star"
       style="fill:#ac9393;stroke-width:4.249;paint-order:markers stroke fill"
       id="path1230"
       inkscape:flatsided="true"
       sodipodi:sides="8"
       sodipodi:cx="456.37564"
       sodipodi:cy="806.57953"
       sodipodi:r1="58.521927"
       sodipodi:r2="26.936707"
       sodipodi:arg1="0.90383792"
       sodipodi:arg2="1.296537"
       inkscape:rounded="0"
       inkscape:randomized="0"
       d="m 492.57725,852.56061 -43.11674,12.13085 -39.06595,-21.91032 -12.13085,-43.11674 21.91032,-39.06595 43.11674,-12.13086 39.06595,21.91033 12.13086,43.11674 z"
       transform="matrix(0.26458333,0,0,0.26458333,43.781219,33.873915)"
       inkscape:transform-center-x="1.5212521e-06"
       inkscape:transform-center-y="-2.6885984e-06" />
    <path
       sodipodi:type="star"
       style="fill:#ac9393;stroke-width:4.249;paint-order:markers stroke fill"
       id="path1356"
       inkscape:flatsided="true"
       sodipodi:sides="8"
       sodipodi:cx="195.78938"
       sodipodi:cy="595.58875"
       sodipodi:r1="36.897106"
       sodipodi:r2="34.088482"
       sodipodi:arg1="1.0395561"
       sodipodi:arg2="1.4322552"
       inkscape:rounded="0"
       inkscape:randomized="0"
       d="m 214.48157,627.40067 -27.96924,3.89988 -22.53487,-17.01962 -3.89988,-27.96924 17.01962,-22.53487 27.96924,-3.89987 22.53487,17.01961 3.89987,27.96924 z"
       transform="scale(0.26458333)"
       inkscape:transform-center-y="-1.9852957e-06" />
    <path
       sodipodi:type="star"
       style="fill:#d35f5f;stroke-width:4.249;paint-order:markers stroke fill"
       id="path1358"
       inkscape:flatsided="true"
       sodipodi:sides="8"
       sodipodi:cx="549.23242"
       sodipodi:cy="194.7408"
       sodipodi:r1="59.595951"
       sodipodi:r2="55.059479"
       sodipodi:arg1="0.89745089"
       sodipodi:arg2="1.29015"
       inkscape:rounded="0"
       inkscape:randomized="0"
       d="m 586.39674,241.32933 -43.82824,12.63367 -39.92461,-22.05788 -12.63367,-43.82824 22.05788,-39.92461 43.82825,-12.63368 39.9246,22.05789 12.63368,43.82824 z"
       transform="scale(0.26458333)"
       inkscape:transform-center-x="1.8307747e-06" />
  </g>
</svg>
